<svg width="178" height="178" viewBox="0 0 178 178" fill="none" xmlns="http://www.w3.org/2000/svg">
<path d="M89 0C39.8518 0 0 39.8457 0 89C0 138.154 39.8479 178 89 178C138.156 178 178 138.154 178 89C178 39.8457 138.156 0 89 0ZM89 26.612C96.8073 26.6115 104.295 29.7126 109.816 35.233C115.337 40.7535 118.439 48.2411 118.439 56.0487C118.44 63.8563 115.339 71.3443 109.819 76.8655C104.298 82.3867 96.8112 85.4887 89.0039 85.4893C81.1966 85.4898 73.7089 82.3887 68.188 76.8683C62.6671 71.3478 59.5652 63.8602 59.5646 56.0526C59.5641 48.245 62.665 40.757 68.1852 35.2358C73.7054 29.7146 81.1927 26.6126 89 26.612ZM88.9804 154.731C73.3848 154.748 58.2976 149.184 46.4468 139.046C45.0677 137.869 43.9601 136.407 43.2001 134.761C42.4402 133.115 42.0461 131.323 42.0449 129.51C42.0449 113.024 55.3875 99.8293 71.8771 99.8293H106.131C122.624 99.8293 135.916 113.024 135.916 129.51C135.917 131.323 135.524 133.114 134.765 134.76C134.006 136.405 132.898 137.866 131.518 139.042C119.668 149.185 104.578 154.75 88.9804 154.731Z" fill="#C1C1C1"/>
</svg>
